#!OML:ASF F:\VICON\USERDATA\INSTALL\rory3\rory3.ASF
:FULLY-SPECIFIED
:DEGREES
229
root 4.65597 17.4135 0.877668 12.6327 -1.39234 -2.52639
lowerback -3.82372 -0.0880009 12.7136
upperback -7.2442 -0.114823 1.18044
thorax -5.61061 -0.714249 -5.85517
lowerneck -9.61055 5.37645 1.13799
upperneck 39.3881 7.00217 2.31247
head 15.3659 3.47215 1.85843
rclavicle 2.33572e-015 2.06736e-014
rhumerus 4.86446 -21.6737 1.12481
rradius 116.219
rwrist -64.1336
rhand -2.28221 -43.3225
rfingers 7.12502
rthumb 23.4027 -71.9195
lclavicle 2.33572e-015 2.06736e-014
lhumerus 33.3731 32.516 -3.52983
lradius 51.9988
lwrist 42.9214
lhand -28.2358 -23.7327
lfingers 7.12502
lthumb -1.61369 6.24091
rfemur -14.2146 4.97188 -0.442275
rtibia 34.0847
rfoot 15.4728 -20.131
rtoes -15.7616
lfemur -20.1496 2.7792 -28.4842
ltibia 24.7723
lfoot -16.4856 9.58267
ltoes 13.3474
230
root 4.65839 17.4063 0.876784 12.6012 -1.46642 -2.53192
lowerback -3.87228 -0.0986707 12.5986
upperback -7.21858 -0.138741 1.17431
thorax -5.55508 -0.715845 -5.79819
lowerneck -9.34226 5.29766 1.25404
upperneck 39.3214 6.94967 2.05148
head 15.2908 3.4338 1.70663
rclavicle 2.56432e-014 -4.85035e-014
rhumerus 4.69942 -21.4265 0.932751
rradius 116.189
rwrist -63.9622
rhand -2.66816 -43.0957
rfingers 7.12502
rthumb 23.0324 -71.7394
lclavicle 2.56432e-014 -4.85035e-014
lhumerus 33.1279 32.3828 -3.67029
lradius 52.6914
lwrist 43.7351
lhand -27.8756 -23.9984
lfingers 7.12502
lthumb -1.26575 5.97761
rfemur -14.3312 4.88149 -0.432306
rtibia 34.2874
rfoot 15.3451 -20.0103
rtoes -16.7007
lfemur -20.233 2.82323 -28.4914
ltibia 25.0075
lfoot -16.6632 9.60512
ltoes 13.69
231
root 4.65986 17.4006 0.87148 12.6233 -1.52372 -2.46738
lowerback -3.87148 -0.161683 12.4018
upperback -7.18974 -0.224106 1.18438
thorax -5.53292 -0.74496 -5.67739
lowerneck -9.36318 5.21892 1.27303
upperneck 39.5071 6.88851 1.88626
head 15.4006 3.38236 1.63268
rclavicle -5.51627e-015 -3.97569e-014
rhumerus 4.63204 -21.2952 0.683321
rradius 116.177
rwrist -63.7389
rhand -2.96416 -42.9123
rfingers 7.12502
rthumb 22.7484 -71.5912
lclavicle -5.51627e-015 -3.97569e-014
lhumerus 32.7973 32.3462 -3.81781
lradius 53.3773
lwrist 44.1222
lhand -26.8486 -23.7118
lfingers 7.12502
lthumb -0.273899 6.26772
rfemur -14.5452 4.73957 -0.491527
rtibia 34.5572
rfoot 15.9132 -19.3678
rtoes -18.2592
lfemur -20.3797 2.94723 -28.5887
ltibia 25.2094
lfoot -16.7864 9.53248
ltoes 13.5513
232
root 4.66048 17.3953 0.866663 12.5755 -1.56832 -2.53099
lowerback -3.85269 -0.201415 12.3795
upperback -7.06657 -0.283581 1.19889
thorax -5.41919 -0.761057 -5.65023
lowerneck -9.56669 5.17418 1.23052
upperneck 39.7802 6.83022 1.89511
head 15.5861 3.3435 1.65371
rclavicle 1.26725e-014 -2.8625e-014
rhumerus 4.56761 -21.4159 0.435778
rradius 116.219
rwrist -63.8777
rhand -2.87312 -43.1841
rfingers 7.12502
rthumb 22.8357 -71.8522
lclavicle 1.26725e-014 -2.8625e-014
lhumerus 32.6444 32.4099 -3.81204
lradius 53.9654
lwrist 44.1552
lhand -26.3776 -23.5608
lfingers 7.12502
lthumb 0.181069 6.41886
rfemur -14.6824 4.64673 -0.386708
rtibia 34.8602
rfoot 15.7873 -19.3935
rtoes -17.2333
lfemur -20.4822 3.10913 -28.535
ltibia 25.4319
lfoot -16.9097 9.48816
ltoes 13.1328
233
root 4.65974 17.388 0.864013 12.4868 -1.63469 -2.54717
lowerback -3.89919 -0.193833 12.3168
upperback -6.9425 -0.291061 1.17452
thorax -5.25621 -0.747682 -5.6434
lowerneck -9.66132 5.04483 1.08053
upperneck 39.9297 6.64777 1.95711
head 15.6755 3.24721 1.6871
rclavicle 1.44119e-014 -2.46493e-014
rhumerus 4.49806 -21.514 0.0756213
rradius 116.176
rwrist -63.8321
rhand -2.52831 -43.4638
rfingers 7.12502
rthumb 23.1666 -72.0907
lclavicle 1.44119e-014 -2.46493e-014
lhumerus 32.5267 32.3511 -3.80716
lradius 54.6148
lwrist 44.556
lhand -27.4403 -24.0927
lfingers 7.12502
lthumb -0.845326 5.88537
rfemur -14.8051 4.53992 -0.327676
rtibia 35.1695
rfoot 14.6075 -20.4329
rtoes -13.5853
lfemur -20.5464 3.23034 -28.5257
ltibia 25.7076
lfoot -17.0961 9.47905
ltoes 13.1154
234
root 4.65929 17.3836 0.862301 12.4002 -1.7468 -2.50149
lowerback -3.85465 -0.182725 12.169
upperback -6.92957 -0.271189 1.14259
thorax -5.25841 -0.730854 -5.59544
lowerneck -9.68333 4.81229 0.819603
upperneck 40.1191 6.3428 2.00446
head 15.7656 3.08038 1.71301
rclavicle 3.72721e-015 -2.38542e-015
rhumerus 4.321 -21.2404 -0.133718
rradius 116.094
rwrist -63.4715
rhand -2.59552 -43.1329
rfingers 7.12502
rthumb 23.1021 -71.7679
lclavicle 3.72721e-015 -2.38542e-015
lhumerus 32.5601 32.2147 -3.58851
lradius 55.2214
lwrist 44.7912
lhand -28.4098 -24.3212
lfingers 7.12502
lthumb -1.78166 5.65114
rfemur -14.9512 4.49021 -0.341256
rtibia 35.4739
rfoot 13.4841 -21.3044
rtoes -11.0171
lfemur -20.5923 3.29513 -28.5664
ltibia 25.9745
lfoot -17.3903 9.41945
ltoes 14.0802
235
root 4.65982 17.3826 0.861991 12.3378 -1.85897 -2.507
lowerback -3.77242 -0.191894 12.078
upperback -6.95575 -0.269425 1.13269
thorax -5.33025 -0.730825 -5.55451
lowerneck -9.62352 4.63897 0.699491
upperneck 40.3854 6.13797 1.93695
head 15.8904 2.9604 1.68075
rclavicle 1.53561e-014 -3.02153e-014
rhumerus 4.13946 -20.8541 -0.2689
rradius 116.046
rwrist -63.203
rhand -2.59279 -42.7954
rfingers 7.12502
rthumb 23.1047 -71.4301
lclavicle 1.53561e-014 -3.02153e-014
lhumerus 32.4724 31.9771 -3.52427
lradius 55.8199
lwrist 45.0768
lhand -28.1038 -24.12
lfingers 7.12502
lthumb -1.48616 5.85458
rfemur -15.1167 4.48508 -0.293956
rtibia 35.7721
rfoot 14.4135 -20.4708
rtoes -13.8762
lfemur -20.6222 3.39226 -28.5553
ltibia 26.1695
lfoot -17.6066 9.36839
ltoes 14.6522
236
root 4.66066 17.3816 0.859786 12.3461 -1.92204 -2.50526
lowerback -3.78302 -0.230914 11.9841
upperback -6.97937 -0.320857 1.13906
thorax -5.35603 -0.753893 -5.49463
lowerneck -9.50544 4.53272 0.667367
upperneck 40.6333 6.05163 1.76918
head 16.0008 2.89066 1.60508
rclavicle -1.96797e-014 1.11319e-014
rhumerus 4.07045 -20.6311 -0.58071
rradius 116.045
rwrist -63.1291
rhand -1.99031 -42.8576
rfingers 7.12502
rthumb 23.6827 -71.4187
lclavicle -1.96797e-014 1.11319e-014
lhumerus 32.2182 31.7171 -3.6377
lradius 56.4284
lwrist 45.5386
lhand -27.4669 -24.1553
lfingers 7.12502
lthumb -0.87101 5.82271
rfemur -15.3689 4.40159 -0.246529
rtibia 36.075
rfoot 15.4158 -19.3973
rtoes -16.5575
lfemur -20.6938 3.50193 -28.5718
ltibia 26.2867
lfoot -17.6893 9.32824
ltoes 14.602
237
root 4.66288 17.3797 0.856492 12.3598 -1.91011 -2.40141
lowerback -3.8657 -0.314606 11.7941
upperback -6.90554 -0.449799 1.12717
thorax -5.24508 -0.799577 -5.40187
lowerneck -9.64954 4.51143 0.702411
upperneck 40.8752 6.08423 1.58981
head 16.1763 2.87674 1.54036
rclavicle -3.23025e-015 -7.15625e-015
rhumerus 3.97048 -20.5753 -0.827742
rradius 116.137
rwrist -63.4025
rhand -1.88849 -42.9245
rfingers 7.12502
rthumb 23.7803 -71.4729
lclavicle -3.23025e-015 -7.15625e-015
lhumerus 32.1637 31.7914 -3.47805
lradius 56.9281
lwrist 45.7158
lhand -26.6871 -24.0437
lfingers 7.12502
lthumb -0.117898 5.93601
rfemur -15.6121 4.29148 -0.330244
rtibia 36.3862
rfoot 15.108 -19.3101
rtoes -15.9532
lfemur -20.7492 3.53857 -28.701
ltibia 26.3362
lfoot -17.7105 9.27513
ltoes 14.6105
238
root 4.66213 17.3695 0.853598 12.3633 -1.89222 -2.31194
lowerback -3.94897 -0.388407 11.6488
upperback -6.76278 -0.57147 1.08599
thorax -5.05944 -0.83828 -5.36661
lowerneck -10.1065 4.53022 0.722115
upperneck 41.1634 6.12961 1.55247
head 16.448 2.88072 1.55533
rclavicle 1.96797e-014 8.74653e-015
rhumerus 3.78196 -20.7122 -0.997168
rradius 116.247
rwrist -63.852
rhand -2.29373 -43.1486
rfingers 7.12502
rthumb 23.3916 -71.747
lclavicle 1.96797e-014 8.74653e-015
lhumerus 32.182 32.0451 -3.28696
lradius 57.3942
lwrist 45.7331
lhand -26.29 -23.6611
lfingers 7.12502
lthumb 0.265634 6.31846
rfemur -15.8416 4.29382 -0.414241
rtibia 36.7282
rfoot 13.8542 -20.0856
rtoes -11.9828
lfemur -20.7557 3.64742 -28.8377
ltibia 26.3535
lfoot -17.6568 9.30372
ltoes 13.3968
239
root 4.65662 17.3591 0.848677 12.4083 -1.9377 -2.30495
lowerback -4.00627 -0.416114 11.5504
upperback -6.68352 -0.622667 1.06105
thorax -4.94646 -0.850514 -5.33981
lowerneck -10.3416 4.55646 0.671873
upperneck 41.3904 6.16845 1.60607
head 16.6256 2.88767 1.61109
rclavicle -1.86858e-014 -6.36111e-015
rhumerus 3.56467 -20.8967 -1.18301
rradius 116.331
rwrist -64.21
rhand -2.12635 -43.5391
rfingers 7.12502
rthumb 23.5522 -72.117
lclavicle -1.86858e-014 -6.36111e-015
lhumerus 32.1228 32.1385 -3.16028
lradius 57.9086
lwrist 45.5518
lhand -27.0891 -23.7165
lfingers 7.12502
lthumb -0.506169 6.26261
rfemur -16.1538 4.37788 -0.372793
rtibia 37.1065
rfoot 12.4893 -20.8774
rtoes -8.18122
lfemur -20.8506 3.7141 -28.8491
ltibia 26.398
lfoot -17.6702 9.30559
ltoes 12.8836
240
root 4.6504 17.3576 0.839531 12.4118 -2.01982 -2.27181
lowerback -3.97501 -0.440098 11.3576
upperback -6.64374 -0.652228 1.04943
thorax -4.91868 -0.853184 -5.24487
lowerneck -10.3539 4.55414 0.550494
upperneck 41.5057 6.18273 1.65164
head 16.6836 2.87719 1.65917
rclavicle 2.93953e-014 -4.77083e-015
rhumerus 3.37741 -20.8745 -1.38422
rradius 116.348
rwrist -64.2939
rhand -1.77274 -43.6039
rfingers 7.12502
rthumb 23.8913 -72.1378
lclavicle 2.93953e-014 -4.77083e-015
lhumerus 32.2179 32.2476 -2.78193
lradius 58.4154
lwrist 45.2813
lhand -27.5307 -23.9391
lfingers 7.12502
lthumb -0.932616 6.03863
rfemur -16.5268 4.45893 -0.31687
rtibia 37.5196
rfoot 12.6828 -20.3939
rtoes -9.89522
lfemur -20.949 3.70448 -28.8578
ltibia 26.4747
lfoot -17.7194 9.30672
ltoes 13.4689
241
root 4.64706 17.3545 0.828054 12.3628 -2.09916 -2.16216
lowerback -3.85591 -0.464517 11.1146
upperback -6.68364 -0.665455 1.01074
thorax -5.02283 -0.856063 -5.14847
lowerneck -10.0035 4.42545 0.291348
upperneck 41.4362 6.00779 1.74882
head 16.5409 2.78155 1.70197
rclavicle 7.42958e-015 2.3059e-014
rhumerus 3.22708 -20.6558 -1.65884
rradius 116.292
rwrist -64.3015
rhand -1.77914 -43.594
rfingers 7.12502
rthumb 23.8852 -72.1287
lclavicle 7.42958e-015 2.3059e-014
lhumerus 32.3349 32.1936 -2.45789
lradius 58.9003
lwrist 45.2712
lhand -26.8087 -23.8376
lfingers 7.12502
lthumb -0.235338 6.14205
rfemur -16.8713 4.47735 -0.357306
rtibia 37.9374
rfoot 12.8986 -19.8345
rtoes -12.2598
lfemur -20.9696 3.7108 -28.9953
ltibia 26.5783
lfoot -17.6875 9.46498
ltoes 13.0376
